HIERARCHY
ROOT Hips
{
	OFFSET 0 0 0
	CHANNELS 6 Xposition Yposition Zposition Yrotation Xrotation Zrotation
	JOINT Spine
	{
		OFFSET -0 8.35985 -2.6647
		CHANNELS 3 Yrotation Xrotation Zrotation
		JOINT Spine1
		{
			OFFSET -0 8.84123 0
			CHANNELS 3 Yrotation Xrotation Zrotation
			JOINT Spine2
			{
				OFFSET -0 8.84123 0
				CHANNELS 3 Yrotation Xrotation Zrotation
				JOINT Spine3
				{
					OFFSET -0 8.84123 0
					CHANNELS 3 Yrotation Xrotation Zrotation
					JOINT Neck
					{
						OFFSET -0 19.9843 3.6647
						CHANNELS 3 Yrotation Xrotation Zrotation
						JOINT Head
						{
							OFFSET -0 10.4498 0
							CHANNELS 3 Yrotation Xrotation Zrotation
							End Site
							{
								OFFSET 0 15 0
							}
						}
					}
					JOINT LeftShoulder
					{
						OFFSET 1.74164 7.25772 3.48327
						CHANNELS 3 Yrotation Xrotation Zrotation
						JOINT LeftArm
						{
							OFFSET 14.6989 0 0
							CHANNELS 3 Yrotation Xrotation Zrotation
							JOINT LeftForeArm
							{
								OFFSET 25.0836 0 0
								CHANNELS 3 Yrotation Xrotation Zrotation
								JOINT LeftHand
								{
									OFFSET 24.2188 0 0
									CHANNELS 3 Yrotation Xrotation Zrotation
									End Site
									{
										OFFSET 15 0 0
									}
								}
							}
						}
					}
					JOINT RightShoulder
					{
						OFFSET -1.74164 7.25772 3.48327
						CHANNELS 3 Yrotation Xrotation Zrotation
						JOINT RightArm
						{
							OFFSET -14.6989 0 0
							CHANNELS 3 Yrotation Xrotation Zrotation
							JOINT RightForeArm
							{
								OFFSET -25.0836 0 0
								CHANNELS 3 Yrotation Xrotation Zrotation
								JOINT RightHand
								{
									OFFSET -24.2188 0 0
									CHANNELS 3 Yrotation Xrotation Zrotation
									End Site
									{
										OFFSET -15 0 0
									}
								}
							}
						}
					}
				}
			}
		}
	}
	JOINT LeftUpLeg
	{
		OFFSET 10.4498 -3.48327 2
		CHANNELS 3 Yrotation Xrotation Zrotation
		JOINT LeftLeg
		{
			OFFSET -0 -39.0946 2.43829
			CHANNELS 3 Yrotation Xrotation Zrotation
			JOINT LeftFoot
			{
				OFFSET -0 -41.1286 -2.43829
				CHANNELS 3 Yrotation Xrotation Zrotation
				JOINT LeftToeBase
				{
					OFFSET -0 -6.72445 15.6747
					CHANNELS 3 Yrotation Xrotation Zrotation
					End Site
					{
						OFFSET 0 0 5
					}
				}
			}
		}
	}
	JOINT RightUpLeg
	{
		OFFSET -10.4498 -3.48327 2
		CHANNELS 3 Yrotation Xrotation Zrotation
		JOINT RightLeg
		{
			OFFSET -0 -39.0946 2.43829
			CHANNELS 3 Yrotation Xrotation Zrotation
			JOINT RightFoot
			{
				OFFSET -0 -41.1286 -2.43829
				CHANNELS 3 Yrotation Xrotation Zrotation
				JOINT RightToeBase
				{
					OFFSET -0 -6.72445 15.6747
					CHANNELS 3 Yrotation Xrotation Zrotation
					End Site
					{
						OFFSET 0 0 5
					}
				}
			}
		}
	}
}
MOTION
Frames: 15
Frame Time: 0.00833333
0 93.966572 0 0 0 0 0 0 0 0 0 0 0 0 0 0 0 0 0 0 0 0 0 0 0 0 0 0 0 0 0 0 0 0 0 0 0 0 0 0 0 0 0 0 0 0 0 0 0 0 0 0 0 0 0 0 0 0 0 0 0 0 0 0 0 0 0 0 0 0 0 0
-86.941064 92.749323 -1.801561 -0.761655 -1.446049 0.420070 -0.273498 1.141934 0.373582 -0.157513 1.338539 0.276209 -0.008246 1.508276 0.181669 0.065089 1.674203 0.128395 -2.450266 -1.966622 -1.152070 -0.954256 11.403585 0.010821 12.040953 13.075664 -3.805833 -38.334585 12.780360 -49.516604 -34.073575 5.249289 1.431947 8.898366 9.494973 -8.944321 -9.293409 2.840669 -1.702446 35.404819 18.222429 61.136247 31.678028 9.972446 -6.823583 -14.355581 1.617077 19.915045 13.215106 2.588522 10.568402 0.000000 -0.474669 0.000000 6.458423 3.764274 -7.433475 0.000000 -3.386721 0.000000 -13.816993 1.823120 -11.090186 0.000000 1.309009 0.000000 -11.427292 2.583356 9.227102 0.000000 -2.488700 0.000000
-86.940302 92.749323 -1.798112 -0.754893 -1.443557 0.423105 -0.268659 1.142462 0.384184 -0.152551 1.329620 0.268891 -0.028698 1.492483 0.165789 0.044298 1.664641 0.118089 -2.429413 -1.926178 -1.117571 -0.946851 11.466026 0.021326 12.070001 13.084759 -3.796486 -38.331144 12.830663 -49.514262 -34.089751 5.167979 1.455941 8.922468 9.630649 -9.080852 -9.283312 2.858821 -1.668982 35.433036 18.241569 61.111988 31.662015 9.966624 -6.836339 -14.339754 1.606085 19.981934 13.231266 2.584128 10.563021 0.000000 -0.476239 0.000000 6.451857 3.773302 -7.427520 0.000000 -3.388747 0.000000 -13.818766 1.827462 -11.092354 0.000000 1.306550 0.000000 -11.434070 2.560572 9.219358 0.000000 -2.432454 0.000000
-86.943518 92.749530 -1.799290 -0.740437 -1.440077 0.419826 -0.277184 1.129703 0.360397 -0.162038 1.325495 0.270481 -0.031340 1.483185 0.184197 0.041719 1.684519 0.133685 -2.426454 -1.897020 -1.122647 -0.942057 11.476237 0.054918 12.072578 13.072558 -3.802203 -38.317254 12.834119 -49.534068 -34.085843 5.233934 1.466514 8.953251 9.576421 -9.047612 -9.259948 2.801461 -1.693034 35.417297 18.258558 61.137822 31.633552 9.984047 -6.809470 -14.323843 1.557345 19.983575 13.241806 2.581030 10.567726 0.000000 -0.494672 0.000000 6.419018 3.784699 -7.436601 0.000000 -3.402939 0.000000 -13.817487 1.829959 -11.087921 0.000000 1.303108 0.000000 -11.447312 2.576538 9.235466 0.000000 -2.471089 0.000000
-86.941376 92.749036 -1.796811 -0.730706 -1.437621 0.412746 -0.282305 1.119223 0.369296 -0.167568 1.316440 0.279202 -0.028974 1.501952 0.186788 0.045851 1.661570 0.123812 -2.430293 -1.848200 -1.111464 -0.944268 11.490852 0.056606 12.073388 13.076462 -3.816889 -38.299547 12.847295 -49.512241 -34.079690 5.235536 1.439113 8.984438 9.515881 -8.993048 -9.268669 2.826529 -1.708606 35.429920 18.245873 61.145739 31.630934 9.927976 -6.833875 -14.350334 1.588986 20.001514 13.235680 2.586835 10.572738 0.000000 -0.510007 0.000000 6.428198 3.779516 -7.440027 0.000000 -3.403979 0.000000 -13.830670 1.827700 -11.083454 0.000000 1.309050 0.000000 -11.436028 2.587039 9.232375 0.000000 -2.489623 0.000000
-86.944031 92.751208 -1.795821 -0.720006 -1.433112 0.418199 -0.274059 1.121174 0.376120 -0.159510 1.313417 0.272528 -0.019716 1.469773 0.173948 0.053036 1.670099 0.127953 -2.469324 -1.829644 -1.128432 -0.953343 11.555691 0.122411 12.027292 13.070120 -3.825622 -38.280481 12.885642 -49.509025 -34.089772 5.288501 1.442895 8.989890 9.475721 -8.989410 -9.307278 2.810530 -1.697174 35.421127 18.273367 61.160803 31.613030 9.952956 -6.851802 -14.342553 1.504154 20.046646 13.237245 2.584077 10.565853 0.000000 -0.518579 0.000000 6.413533 3.782649 -7.431631 0.000000 -3.376087 0.000000 -13.840161 1.830888 -11.084816 0.000000 1.298104 0.000000 -11.450434 2.576839 9.219996 0.000000 -2.450734 0.000000
-86.945471 92.748383 -1.796315 -0.717935 -1.432267 0.419136 -0.279232 1.115900 0.370654 -0.164695 1.308151 0.270358 -0.020361 1.476832 0.174106 0.052501 1.666120 0.128143 -2.468816 -1.797002 -1.084391 -0.961730 11.545991 0.069296 12.049058 13.065995 -3.811269 -38.262947 12.876657 -49.510600 -34.095441 5.285869 1.438187 8.998819 9.505473 -8.996049 -9.316380 2.786417 -1.710489 35.467643 18.290916 61.173501 31.616642 9.884378 -6.839377 -14.362692 1.468667 20.083614 13.235704 2.585204 10.567026 0.000000 -0.519048 0.000000 6.412850 3.779038 -7.428354 0.000000 -3.382299 0.000000 -13.835654 1.832148 -11.085952 0.000000 1.295059 0.000000 -11.451863 2.572106 9.222557 0.000000 -2.459526 0.000000
-86.947192 92.750525 -1.796267 -0.712105 -1.430586 0.419235 -0.276604 1.110677 0.374782 -0.162258 1.311179 0.269847 -0.028343 1.477095 0.168346 0.045948 1.638862 0.112768 -2.478866 -1.738437 -1.045403 -0.970766 11.560546 0.053200 12.049162 13.072251 -3.803914 -38.201420 12.879957 -49.504371 -34.115545 5.340880 1.427940 9.044781 9.444283 -8.996094 -9.289076 2.817254 -1.682161 35.425023 18.311585 61.150561 31.645052 9.893254 -6.812627 -14.403319 1.446272 20.016394 13.251336 2.581152 10.566424 0.000000 -0.531559 0.000000 6.398885 3.796276 -7.430923 0.000000 -3.394131 0.000000 -13.847455 1.831323 -11.084022 0.000000 1.293410 0.000000 -11.446864 2.574327 9.212556 0.000000 -2.447786 0.000000
-86.949579 92.749274 -1.795032 -0.706849 -1.428644 0.423426 -0.271920 1.111076 0.369425 -0.157768 1.308452 0.266237 -0.037784 1.468069 0.169943 0.035850 1.631641 0.118755 -2.489967 -1.731525 -1.068754 -0.968348 11.623032 0.105035 12.059860 13.073367 -3.795840 -38.197787 12.889924 -49.516473 -34.095409 5.378921 1.438975 9.009889 9.427429 -9.071924 -9.287212 2.841771 -1.681903 35.426925 18.329195 61.135783 31.668806 9.886050 -6.830592 -14.446906 1.488197 20.005882 13.241207 2.582212 10.565209 0.000000 -0.531200 0.000000 6.387170 3.799888 -7.432418 0.000000 -3.417681 0.000000 -13.835133 1.836581 -11.085991 0.000000 1.289302 0.000000 -11.472733 2.572805 9.229054 0.000000 -2.479061 0.000000
-86.947217 92.749854 -1.794296 -0.703744 -1.428040 0.409927 -0.274609 1.083190 0.385226 -0.161278 1.324645 0.277970 -0.037131 1.465759 0.172884 0.037218 1.649847 0.111174 -2.503683 -1.714863 -1.072802 -0.974992 11.622582 0.091655 12.041965 13.058105 -3.809407 -38.144688 12.889111 -49.514399 -34.112810 5.378695 1.429810 9.050121 9.490804 -9.055767 -9.289496 2.842306 -1.706555 35.457338 18.324492 61.143845 31.662969 9.913932 -6.834596 -14.478399 1.411201 19.969609 13.240271 2.587227 10.574468 0.000000 -0.546557 0.000000 6.398653 3.796764 -7.423634 0.000000 -3.409807 0.000000 -13.840569 1.831802 -11.075933 0.000000 1.303198 0.000000 -11.462128 2.564538 9.247277 0.000000 -2.440138 0.000000
-86.947760 92.750012 -1.794625 -0.710621 -1.427085 0.423821 -0.273171 1.093260 0.365670 -0.160584 1.314992 0.273928 -0.035518 1.469441 0.178293 0.039721 1.630271 0.108697 -2.510784 -1.693102 -1.040434 -0.983549 11.628199 0.062473 12.062889 13.085899 -3.799854 -38.155383 12.882534 -49.493430 -34.098803 5.427506 1.424665 9.055325 9.410991 -9.109661 -9.287511 2.834233 -1.715541 35.442369 18.337826 61.156571 31.667780 9.876451 -6.821772 -14.493939 1.511572 19.939971 13.235301 2.587228 10.561897 0.000000 -0.533953 0.000000 6.410843 3.784280 -7.437948 0.000000 -3.397493 0.000000 -13.824144 1.839103 -11.088747 0.000000 1.281949 0.000000 -11.475559 2.570333 9.228755 0.000000 -2.459358 0.000000
-86.948462 92.748480 -1.794261 -0.703254 -1.427833 0.417875 -0.267121 1.085659 0.377321 -0.154976 1.319554 0.274409 -0.040232 1.458070 0.173441 0.033637 1.641865 0.112324 -2.518791 -1.672106 -1.043068 -0.986967 11.620236 0.059817 12.044724 13.087004 -3.789635 -38.135253 12.882631 -49.496391 -34.107896 5.411830 1.407668 9.062490 9.418691 -9.126088 -9.312399 2.820967 -1.750059 35.485420 18.325943 61.182989 31.651874 9.810897 -6.813647 -14.496150 1.572715 19.887567 13.227074 2.591267 10.568941 0.000000 -0.540649 0.000000 6.417824 3.783783 -7.465833 0.000000 -3.376632 0.000000 -13.830837 1.835110 -11.080805 0.000000 1.296298 0.000000 -11.481440 2.568240 9.217701 0.000000 -2.477002 0.000000
-86.949402 92.749707 -1.795902 -0.703040 -1.428808 0.417714 -0.268929 1.088362 0.379502 -0.156806 1.315895 0.275844 -0.037271 1.456690 0.172953 0.036708 1.633707 0.110210 -2.530762 -1.656287 -1.057636 -0.987461 11.649277 0.094119 12.038794 13.090352 -3.783994 -38.115192 12.866672 -49.495442 -34.071996 5.428747 1.404710 9.000201 9.485534 -9.153579 -9.297157 2.837737 -1.759201 35.472545 18.341694 61.179281 31.657435 9.858569 -6.793017 -14.528540 1.526559 19.777310 13.222104 2.590249 10.569751 0.000000 -0.544579 0.000000 6.415872 3.798563 -7.438232 0.000000 -3.401118 0.000000 -13.826907 1.834981 -11.081026 0.000000 1.295473 0.000000 -11.479209 2.568185 9.229345 0.000000 -2.447323 0.000000
-86.949902 92.749670 -1.797644 -0.703523 -1.428919 0.417537 -0.266113 1.088337 0.379946 -0.154017 1.311343 0.276859 -0.036635 1.451561 0.174224 0.037434 1.634315 0.109952 -2.545474 -1.603407 -1.042538 -0.998442 11.595544 0.060054 12.046174 13.091895 -3.776111 -38.127631 12.878114 -49.486550 -34.088922 5.424160 1.377967 9.019413 9.447599 -9.170601 -9.294415 2.861536 -1.773860 35.479379 18.352044 61.184122 31.681999 9.803056 -6.811489 -14.554314 1.603055 19.795943 13.223979 2.590050 10.569469 0.000000 -0.543725 0.000000 6.413262 3.792319 -7.443605 0.000000 -3.370149 0.000000 -13.829048 1.834703 -11.080042 0.000000 1.294788 0.000000 -11.478420 2.570274 9.236828 0.000000 -2.463146 0.000000
-86.950598 92.751123 -1.800572 -0.704327 -1.431069 0.417698 -0.263061 1.094587 0.374830 -0.151132 1.304503 0.275143 -0.035213 1.458227 0.176671 0.038236 1.625814 0.116592 -2.554234 -1.598185 -1.041041 -1.001025 11.610745 0.073911 12.036351 13.090391 -3.767712 -38.113541 12.884925 -49.499795 -34.101548 5.460998 1.380748 9.018864 9.447120 -9.164191 -9.306760 2.812133 -1.791661 35.441673 18.362371 61.187098 31.679661 9.868310 -6.748440 -14.552202 1.597734 19.763651 13.233080 2.587382 10.569022 0.000000 -0.544010 0.000000 6.408289 3.799066 -7.439395 0.000000 -3.378961 0.000000 -13.811471 1.836827 -11.080115 0.000000 1.294439 0.000000 -11.487262 2.584357 9.225875 0.000000 -2.469138 0.000000
